<svg width="1440" height="240" viewBox="0 0 1440 240" fill="none" xmlns="http://www.w3.org/2000/svg">
<path d="M9.15527e-05 234.545C9.15527e-05 231.533 2.44305 229.091 5.4566 229.091C8.47015 229.091 10.9131 231.533 10.9131 234.545C10.9131 237.558 8.47015 240 5.4566 240C2.44305 240 9.15527e-05 237.558 9.15527e-05 234.545Z" fill="#252525"/>
<path d="M5.4566 98.1818C2.44305 98.1818 9.15527e-05 100.624 9.15527e-05 103.636C9.15527e-05 106.649 2.44305 109.091 5.4566 109.091C8.47015 109.091 10.9131 106.649 10.9131 103.636C10.9131 100.624 8.47015 98.1818 5.4566 98.1818Z" fill="#252525"/>
<path d="M9.15527e-05 70.9091C9.15527e-05 67.8966 2.44305 65.4545 5.4566 65.4545C8.47015 65.4545 10.9131 67.8966 10.9131 70.9091C10.9131 73.9216 8.47015 76.3636 5.4566 76.3636C2.44305 76.3636 9.15527e-05 73.9216 9.15527e-05 70.9091Z" fill="#252525"/>
<path d="M9.15527e-05 38.1818C9.15527e-05 35.1693 2.44305 32.7273 5.4566 32.7273C8.47015 32.7273 10.9131 35.1693 10.9131 38.1818C10.9131 41.1943 8.47015 43.6364 5.4566 43.6364C2.44305 43.6364 9.15527e-05 41.1943 9.15527e-05 38.1818Z" fill="#252525"/>
<path d="M9.15527e-05 5.45454C9.15527e-05 2.44208 2.44305 0 5.4566 0C8.47015 0 10.9131 2.44208 10.9131 5.45454C10.9131 8.46701 8.47015 10.9091 5.4566 10.9091C2.44305 10.9091 9.15527e-05 8.46701 9.15527e-05 5.45454Z" fill="#252525"/>
<path d="M9.15527e-05 201.818C9.15527e-05 198.806 2.44305 196.364 5.4566 196.364C8.47015 196.364 10.9131 198.806 10.9131 201.818C10.9131 204.831 8.47015 207.273 5.4566 207.273C2.44305 207.273 9.15527e-05 204.831 9.15527e-05 201.818Z" fill="#252525"/>
<path d="M9.15527e-05 169.091C9.15527e-05 166.078 2.44305 163.636 5.4566 163.636C8.47015 163.636 10.9131 166.078 10.9131 169.091C10.9131 172.103 8.47015 174.545 5.4566 174.545C2.44305 174.545 9.15527e-05 172.103 9.15527e-05 169.091Z" fill="#252525"/>
<path d="M70.9349 196.364C67.9213 196.364 65.4783 198.806 65.4783 201.818C65.4783 204.831 67.9213 207.273 70.9349 207.273C73.9484 207.273 76.3914 204.831 76.3914 201.818C76.3914 198.806 73.9484 196.364 70.9349 196.364Z" fill="#252525"/>
<path d="M32.7392 201.818C32.7392 198.806 35.1822 196.364 38.1957 196.364C41.2093 196.364 43.6523 198.806 43.6523 201.818C43.6523 204.831 41.2093 207.273 38.1957 207.273C35.1822 207.273 32.7392 204.831 32.7392 201.818Z" fill="#252525"/>
<path d="M38.1957 223.636C35.1822 223.636 32.7392 226.078 32.7392 229.091C32.7392 232.103 35.1822 234.545 38.1957 234.545C41.2093 234.545 43.6523 232.103 43.6523 229.091C43.6523 226.078 41.2093 223.636 38.1957 223.636Z" fill="#252525"/>
<path d="M98.2175 169.091C98.2175 166.078 100.66 163.636 103.674 163.636C106.688 163.636 109.131 166.078 109.131 169.091C109.131 172.103 106.688 174.545 103.674 174.545C100.66 174.545 98.2175 172.103 98.2175 169.091Z" fill="#252525"/>
<path d="M136.413 130.909C133.4 130.909 130.957 133.351 130.957 136.364C130.957 139.376 133.4 141.818 136.413 141.818C139.427 141.818 141.87 139.376 141.87 136.364C141.87 133.351 139.427 130.909 136.413 130.909Z" fill="#252525"/>
<path d="M65.4783 169.091C65.4783 166.078 67.9213 163.636 70.9349 163.636C73.9484 163.636 76.3914 166.078 76.3914 169.091C76.3914 172.103 73.9484 174.545 70.9349 174.545C67.9213 174.545 65.4783 172.103 65.4783 169.091Z" fill="#252525"/>
<path d="M38.1957 163.636C35.1822 163.636 32.7392 166.078 32.7392 169.091C32.7392 172.103 35.1822 174.545 38.1957 174.545C41.2093 174.545 43.6523 172.103 43.6523 169.091C43.6523 166.078 41.2093 163.636 38.1957 163.636Z" fill="#252525"/>
<path d="M98.2175 136.364C98.2175 133.351 100.66 130.909 103.674 130.909C106.688 130.909 109.131 133.351 109.131 136.364C109.131 139.376 106.688 141.818 103.674 141.818C100.66 141.818 98.2175 139.376 98.2175 136.364Z" fill="#252525"/>
<path d="M70.9349 130.909C67.9213 130.909 65.4783 133.351 65.4783 136.364C65.4783 139.376 67.9213 141.818 70.9349 141.818C73.9484 141.818 76.3914 139.376 76.3914 136.364C76.3914 133.351 73.9484 130.909 70.9349 130.909Z" fill="#252525"/>
<path d="M32.7392 136.364C32.7392 133.351 35.1822 130.909 38.1957 130.909C41.2093 130.909 43.6523 133.351 43.6523 136.364C43.6523 139.376 41.2093 141.818 38.1957 141.818C35.1822 141.818 32.7392 139.376 32.7392 136.364Z" fill="#252525"/>
<path d="M9.15527e-05 136.364C9.15527e-05 133.351 2.44305 130.909 5.4566 130.909C8.47015 130.909 10.9131 133.351 10.9131 136.364C10.9131 139.376 8.47015 141.818 5.4566 141.818C2.44305 141.818 9.15527e-05 139.376 9.15527e-05 136.364Z" fill="#252525"/>
<path d="M163.696 103.636C163.696 100.624 166.139 98.1818 169.152 98.1818C172.166 98.1818 174.609 100.624 174.609 103.636C174.609 106.649 172.166 109.091 169.152 109.091C166.139 109.091 163.696 106.649 163.696 103.636Z" fill="#252525"/>
<path d="M201.891 65.4545C198.878 65.4545 196.435 67.8966 196.435 70.9091C196.435 73.9216 198.878 76.3636 201.891 76.3636C204.905 76.3636 207.348 73.9216 207.348 70.9091C207.348 67.8966 204.905 65.4545 201.891 65.4545Z" fill="#252525"/>
<path d="M163.696 70.9091C163.696 67.8966 166.139 65.4545 169.152 65.4545C172.166 65.4545 174.609 67.8966 174.609 70.9091C174.609 73.9216 172.166 76.3636 169.152 76.3636C166.139 76.3636 163.696 73.9216 163.696 70.9091Z" fill="#252525"/>
<path d="M136.413 98.1818C133.4 98.1818 130.957 100.624 130.957 103.636C130.957 106.649 133.4 109.091 136.413 109.091C139.427 109.091 141.87 106.649 141.87 103.636C141.87 100.624 139.427 98.1818 136.413 98.1818Z" fill="#252525"/>
<path d="M98.2175 103.636C98.2175 100.624 100.66 98.1818 103.674 98.1818C106.688 98.1818 109.131 100.624 109.131 103.636C109.131 106.649 106.688 109.091 103.674 109.091C100.66 109.091 98.2175 106.649 98.2175 103.636Z" fill="#252525"/>
<path d="M70.9349 98.1818C67.9213 98.1818 65.4783 100.624 65.4783 103.636C65.4783 106.649 67.9213 109.091 70.9349 109.091C73.9484 109.091 76.3914 106.649 76.3914 103.636C76.3914 100.624 73.9484 98.1818 70.9349 98.1818Z" fill="#252525"/>
<path d="M32.7392 103.636C32.7392 100.624 35.1822 98.1818 38.1957 98.1818C41.2093 98.1818 43.6523 100.624 43.6523 103.636C43.6523 106.649 41.2093 109.091 38.1957 109.091C35.1822 109.091 32.7392 106.649 32.7392 103.636Z" fill="#252525"/>
<path d="M136.413 65.4545C133.4 65.4545 130.957 67.8966 130.957 70.9091C130.957 73.9216 133.4 76.3636 136.413 76.3636C139.427 76.3636 141.87 73.9216 141.87 70.9091C141.87 67.8966 139.427 65.4545 136.413 65.4545Z" fill="#252525"/>
<path d="M98.2175 70.9091C98.2175 67.8966 100.66 65.4545 103.674 65.4545C106.688 65.4545 109.131 67.8966 109.131 70.9091C109.131 73.9216 106.688 76.3636 103.674 76.3636C100.66 76.3636 98.2175 73.9216 98.2175 70.9091Z" fill="#252525"/>
<path d="M70.9349 65.4545C67.9213 65.4545 65.4783 67.8966 65.4783 70.9091C65.4783 73.9216 67.9213 76.3636 70.9349 76.3636C73.9484 76.3636 76.3914 73.9216 76.3914 70.9091C76.3914 67.8966 73.9484 65.4545 70.9349 65.4545Z" fill="#252525"/>
<path d="M32.7392 70.9091C32.7392 67.8966 35.1822 65.4545 38.1957 65.4545C41.2093 65.4545 43.6523 67.8966 43.6523 70.9091C43.6523 73.9216 41.2093 76.3636 38.1957 76.3636C35.1822 76.3636 32.7392 73.9216 32.7392 70.9091Z" fill="#252525"/>
<path d="M234.631 32.7273C231.617 32.7273 229.174 35.1693 229.174 38.1818C229.174 41.1943 231.617 43.6364 234.631 43.6364C237.644 43.6364 240.087 41.1943 240.087 38.1818C240.087 35.1693 237.644 32.7273 234.631 32.7273Z" fill="#252525"/>
<path d="M196.435 38.1818C196.435 35.1693 198.878 32.7273 201.891 32.7273C204.905 32.7273 207.348 35.1693 207.348 38.1818C207.348 41.1943 204.905 43.6364 201.891 43.6364C198.878 43.6364 196.435 41.1943 196.435 38.1818Z" fill="#252525"/>
<path d="M169.152 32.7273C166.139 32.7273 163.696 35.1693 163.696 38.1818C163.696 41.1943 166.139 43.6364 169.152 43.6364C172.166 43.6364 174.609 41.1943 174.609 38.1818C174.609 35.1693 172.166 32.7273 169.152 32.7273Z" fill="#252525"/>
<path d="M261.913 5.45454C261.913 2.44208 264.356 0 267.37 0C270.383 0 272.826 2.44208 272.826 5.45454C272.826 8.46701 270.383 10.9091 267.37 10.9091C264.356 10.9091 261.913 8.46701 261.913 5.45454Z" fill="#252525"/>
<path d="M234.631 0C231.617 0 229.174 2.44208 229.174 5.45454C229.174 8.46701 231.617 10.9091 234.631 10.9091C237.644 10.9091 240.087 8.46701 240.087 5.45454C240.087 2.44208 237.644 0 234.631 0Z" fill="#252525"/>
<path d="M196.435 5.45454C196.435 2.44208 198.878 0 201.891 0C204.905 0 207.348 2.44208 207.348 5.45454C207.348 8.46701 204.905 10.9091 201.891 10.9091C198.878 10.9091 196.435 8.46701 196.435 5.45454Z" fill="#252525"/>
<path d="M169.152 0C166.139 0 163.696 2.44208 163.696 5.45454C163.696 8.46701 166.139 10.9091 169.152 10.9091C172.166 10.9091 174.609 8.46701 174.609 5.45454C174.609 2.44208 172.166 0 169.152 0Z" fill="#252525"/>
<path d="M130.957 38.1818C130.957 35.1693 133.4 32.7273 136.413 32.7273C139.427 32.7273 141.87 35.1693 141.87 38.1818C141.87 41.1943 139.427 43.6364 136.413 43.6364C133.4 43.6364 130.957 41.1943 130.957 38.1818Z" fill="#252525"/>
<path d="M103.674 32.7273C100.66 32.7273 98.2175 35.1693 98.2175 38.1818C98.2175 41.1943 100.66 43.6364 103.674 43.6364C106.688 43.6364 109.131 41.1943 109.131 38.1818C109.131 35.1693 106.688 32.7273 103.674 32.7273Z" fill="#252525"/>
<path d="M65.4783 38.1818C65.4783 35.1693 67.9213 32.7273 70.9349 32.7273C73.9484 32.7273 76.3914 35.1693 76.3914 38.1818C76.3914 41.1943 73.9484 43.6364 70.9349 43.6364C67.9213 43.6364 65.4783 41.1943 65.4783 38.1818Z" fill="#252525"/>
<path d="M38.1957 32.7273C35.1822 32.7273 32.7392 35.1693 32.7392 38.1818C32.7392 41.1943 35.1822 43.6364 38.1957 43.6364C41.2093 43.6364 43.6523 41.1943 43.6523 38.1818C43.6523 35.1693 41.2093 32.7273 38.1957 32.7273Z" fill="#252525"/>
<path d="M130.957 5.45454C130.957 2.44208 133.4 0 136.413 0C139.427 0 141.87 2.44208 141.87 5.45454C141.87 8.46701 139.427 10.9091 136.413 10.9091C133.4 10.9091 130.957 8.46701 130.957 5.45454Z" fill="#252525"/>
<path d="M103.674 0C100.66 0 98.2175 2.44208 98.2175 5.45454C98.2175 8.46701 100.66 10.9091 103.674 10.9091C106.688 10.9091 109.131 8.46701 109.131 5.45454C109.131 2.44208 106.688 0 103.674 0Z" fill="#252525"/>
<path d="M65.4783 5.45454C65.4783 2.44208 67.9213 0 70.9349 0C73.9484 0 76.3914 2.44208 76.3914 5.45454C76.3914 8.46701 73.9484 10.9091 70.9349 10.9091C67.9213 10.9091 65.4783 8.46701 65.4783 5.45454Z" fill="#252525"/>
<path d="M38.1957 0C35.1822 0 32.7392 2.44208 32.7392 5.45454C32.7392 8.46701 35.1822 10.9091 38.1957 10.9091C41.2093 10.9091 43.6523 8.46701 43.6523 5.45454C43.6523 2.44208 41.2093 0 38.1957 0Z" fill="#252525"/>
<path d="M1439.83 5.45455C1439.83 8.46701 1437.38 10.9091 1434.37 10.9091C1431.36 10.9091 1428.91 8.46701 1428.91 5.45455C1428.91 2.44208 1431.36 0 1434.37 0C1437.38 0 1439.83 2.44208 1439.83 5.45455Z" fill="#252525"/>
<path d="M1434.37 141.818C1437.38 141.818 1439.83 139.376 1439.83 136.364C1439.83 133.351 1437.38 130.909 1434.37 130.909C1431.36 130.909 1428.91 133.351 1428.91 136.364C1428.91 139.376 1431.36 141.818 1434.37 141.818Z" fill="#252525"/>
<path d="M1439.83 169.091C1439.83 172.103 1437.38 174.545 1434.37 174.545C1431.36 174.545 1428.91 172.103 1428.91 169.091C1428.91 166.078 1431.36 163.636 1434.37 163.636C1437.38 163.636 1439.83 166.078 1439.83 169.091Z" fill="#252525"/>
<path d="M1439.83 201.818C1439.83 204.831 1437.38 207.273 1434.37 207.273C1431.36 207.273 1428.91 204.831 1428.91 201.818C1428.91 198.806 1431.36 196.364 1434.37 196.364C1437.38 196.364 1439.83 198.806 1439.83 201.818Z" fill="#252525"/>
<path d="M1439.83 234.545C1439.83 237.558 1437.38 240 1434.37 240C1431.36 240 1428.91 237.558 1428.91 234.545C1428.91 231.533 1431.36 229.091 1434.37 229.091C1437.38 229.091 1439.83 231.533 1439.83 234.545Z" fill="#252525"/>
<path d="M1439.83 38.1818C1439.83 41.1943 1437.38 43.6364 1434.37 43.6364C1431.36 43.6364 1428.91 41.1943 1428.91 38.1818C1428.91 35.1694 1431.36 32.7273 1434.37 32.7273C1437.38 32.7273 1439.83 35.1694 1439.83 38.1818Z" fill="#252525"/>
<path d="M1439.83 70.9091C1439.83 73.9216 1437.38 76.3636 1434.37 76.3636C1431.36 76.3636 1428.91 73.9216 1428.91 70.9091C1428.91 67.8966 1431.36 65.4545 1434.37 65.4545C1437.38 65.4545 1439.83 67.8966 1439.83 70.9091Z" fill="#252525"/>
<path d="M1368.89 43.6364C1371.9 43.6364 1374.35 41.1943 1374.35 38.1818C1374.35 35.1694 1371.9 32.7273 1368.89 32.7273C1365.88 32.7273 1363.43 35.1694 1363.43 38.1818C1363.43 41.1943 1365.88 43.6364 1368.89 43.6364Z" fill="#252525"/>
<path d="M1407.09 38.1818C1407.09 41.1943 1404.64 43.6364 1401.63 43.6364C1398.62 43.6364 1396.17 41.1943 1396.17 38.1818C1396.17 35.1694 1398.62 32.7273 1401.63 32.7273C1404.64 32.7273 1407.09 35.1694 1407.09 38.1818Z" fill="#252525"/>
<path d="M1401.63 16.3636C1404.64 16.3636 1407.09 13.9216 1407.09 10.9091C1407.09 7.89663 1404.64 5.45455 1401.63 5.45455C1398.62 5.45455 1396.17 7.89663 1396.17 10.9091C1396.17 13.9216 1398.62 16.3636 1401.63 16.3636Z" fill="#252525"/>
<path d="M1341.61 70.9091C1341.61 73.9216 1339.17 76.3636 1336.15 76.3636C1333.14 76.3636 1330.7 73.9216 1330.7 70.9091C1330.7 67.8966 1333.14 65.4545 1336.15 65.4545C1339.17 65.4545 1341.61 67.8966 1341.61 70.9091Z" fill="#252525"/>
<path d="M1303.41 109.091C1306.43 109.091 1308.87 106.649 1308.87 103.636C1308.87 100.624 1306.43 98.1818 1303.41 98.1818C1300.4 98.1818 1297.96 100.624 1297.96 103.636C1297.96 106.649 1300.4 109.091 1303.41 109.091Z" fill="#252525"/>
<path d="M1374.35 70.9091C1374.35 73.9216 1371.9 76.3636 1368.89 76.3636C1365.88 76.3636 1363.43 73.9216 1363.43 70.9091C1363.43 67.8966 1365.88 65.4545 1368.89 65.4545C1371.9 65.4545 1374.35 67.8966 1374.35 70.9091Z" fill="#252525"/>
<path d="M1401.63 76.3636C1404.64 76.3636 1407.09 73.9216 1407.09 70.9091C1407.09 67.8966 1404.64 65.4545 1401.63 65.4545C1398.62 65.4545 1396.17 67.8966 1396.17 70.9091C1396.17 73.9216 1398.62 76.3636 1401.63 76.3636Z" fill="#252525"/>
<path d="M1341.61 103.636C1341.61 106.649 1339.17 109.091 1336.15 109.091C1333.14 109.091 1330.7 106.649 1330.7 103.636C1330.7 100.624 1333.14 98.1818 1336.15 98.1818C1339.17 98.1818 1341.61 100.624 1341.61 103.636Z" fill="#252525"/>
<path d="M1368.89 109.091C1371.9 109.091 1374.35 106.649 1374.35 103.636C1374.35 100.624 1371.9 98.1818 1368.89 98.1818C1365.88 98.1818 1363.43 100.624 1363.43 103.636C1363.43 106.649 1365.88 109.091 1368.89 109.091Z" fill="#252525"/>
<path d="M1407.09 103.636C1407.09 106.649 1404.64 109.091 1401.63 109.091C1398.62 109.091 1396.17 106.649 1396.17 103.636C1396.17 100.624 1398.62 98.1818 1401.63 98.1818C1404.64 98.1818 1407.09 100.624 1407.09 103.636Z" fill="#252525"/>
<path d="M1439.83 103.636C1439.83 106.649 1437.38 109.091 1434.37 109.091C1431.36 109.091 1428.91 106.649 1428.91 103.636C1428.91 100.624 1431.36 98.1818 1434.37 98.1818C1437.38 98.1818 1439.83 100.624 1439.83 103.636Z" fill="#252525"/>
<path d="M1276.13 136.364C1276.13 139.376 1273.69 141.818 1270.67 141.818C1267.66 141.818 1265.22 139.376 1265.22 136.364C1265.22 133.351 1267.66 130.909 1270.67 130.909C1273.69 130.909 1276.13 133.351 1276.13 136.364Z" fill="#252525"/>
<path d="M1237.93 174.545C1240.95 174.545 1243.39 172.103 1243.39 169.091C1243.39 166.078 1240.95 163.636 1237.93 163.636C1234.92 163.636 1232.48 166.078 1232.48 169.091C1232.48 172.103 1234.92 174.545 1237.93 174.545Z" fill="#252525"/>
<path d="M1276.13 169.091C1276.13 172.103 1273.69 174.545 1270.67 174.545C1267.66 174.545 1265.22 172.103 1265.22 169.091C1265.22 166.078 1267.66 163.636 1270.67 163.636C1273.69 163.636 1276.13 166.078 1276.13 169.091Z" fill="#252525"/>
<path d="M1303.41 141.818C1306.43 141.818 1308.87 139.376 1308.87 136.364C1308.87 133.351 1306.43 130.909 1303.41 130.909C1300.4 130.909 1297.96 133.351 1297.96 136.364C1297.96 139.376 1300.4 141.818 1303.41 141.818Z" fill="#252525"/>
<path d="M1341.61 136.364C1341.61 139.376 1339.17 141.818 1336.15 141.818C1333.14 141.818 1330.7 139.376 1330.7 136.364C1330.7 133.351 1333.14 130.909 1336.15 130.909C1339.17 130.909 1341.61 133.351 1341.61 136.364Z" fill="#252525"/>
<path d="M1368.89 141.818C1371.9 141.818 1374.35 139.376 1374.35 136.364C1374.35 133.351 1371.9 130.909 1368.89 130.909C1365.88 130.909 1363.43 133.351 1363.43 136.364C1363.43 139.376 1365.88 141.818 1368.89 141.818Z" fill="#252525"/>
<path d="M1407.09 136.364C1407.09 139.376 1404.64 141.818 1401.63 141.818C1398.62 141.818 1396.17 139.376 1396.17 136.364C1396.17 133.351 1398.62 130.909 1401.63 130.909C1404.64 130.909 1407.09 133.351 1407.09 136.364Z" fill="#252525"/>
<path d="M1303.41 174.545C1306.43 174.545 1308.87 172.103 1308.87 169.091C1308.87 166.078 1306.43 163.636 1303.41 163.636C1300.4 163.636 1297.96 166.078 1297.96 169.091C1297.96 172.103 1300.4 174.545 1303.41 174.545Z" fill="#252525"/>
<path d="M1341.61 169.091C1341.61 172.103 1339.17 174.545 1336.15 174.545C1333.14 174.545 1330.7 172.103 1330.7 169.091C1330.7 166.078 1333.14 163.636 1336.15 163.636C1339.17 163.636 1341.61 166.078 1341.61 169.091Z" fill="#252525"/>
<path d="M1368.89 174.545C1371.9 174.545 1374.35 172.103 1374.35 169.091C1374.35 166.078 1371.9 163.636 1368.89 163.636C1365.88 163.636 1363.43 166.078 1363.43 169.091C1363.43 172.103 1365.88 174.545 1368.89 174.545Z" fill="#252525"/>
<path d="M1407.09 169.091C1407.09 172.103 1404.64 174.545 1401.63 174.545C1398.62 174.545 1396.17 172.103 1396.17 169.091C1396.17 166.078 1398.62 163.636 1401.63 163.636C1404.64 163.636 1407.09 166.078 1407.09 169.091Z" fill="#252525"/>
<path d="M1205.2 207.273C1208.21 207.273 1210.65 204.831 1210.65 201.818C1210.65 198.806 1208.21 196.364 1205.2 196.364C1202.18 196.364 1199.74 198.806 1199.74 201.818C1199.74 204.831 1202.18 207.273 1205.2 207.273Z" fill="#252525"/>
<path d="M1243.39 201.818C1243.39 204.831 1240.95 207.273 1237.93 207.273C1234.92 207.273 1232.48 204.831 1232.48 201.818C1232.48 198.806 1234.92 196.364 1237.93 196.364C1240.95 196.364 1243.39 198.806 1243.39 201.818Z" fill="#252525"/>
<path d="M1270.67 207.273C1273.69 207.273 1276.13 204.831 1276.13 201.818C1276.13 198.806 1273.69 196.364 1270.67 196.364C1267.66 196.364 1265.22 198.806 1265.22 201.818C1265.22 204.831 1267.66 207.273 1270.67 207.273Z" fill="#252525"/>
<path d="M1177.91 234.545C1177.91 237.558 1175.47 240 1172.46 240C1169.44 240 1167 237.558 1167 234.545C1167 231.533 1169.44 229.091 1172.46 229.091C1175.47 229.091 1177.91 231.533 1177.91 234.545Z" fill="#252525"/>
<path d="M1205.2 240C1208.21 240 1210.65 237.558 1210.65 234.545C1210.65 231.533 1208.21 229.091 1205.2 229.091C1202.18 229.091 1199.74 231.533 1199.74 234.545C1199.74 237.558 1202.18 240 1205.2 240Z" fill="#252525"/>
<path d="M1243.39 234.545C1243.39 237.558 1240.95 240 1237.93 240C1234.92 240 1232.48 237.558 1232.48 234.545C1232.48 231.533 1234.92 229.091 1237.93 229.091C1240.95 229.091 1243.39 231.533 1243.39 234.545Z" fill="#252525"/>
<path d="M1270.67 240C1273.69 240 1276.13 237.558 1276.13 234.545C1276.13 231.533 1273.69 229.091 1270.67 229.091C1267.66 229.091 1265.22 231.533 1265.22 234.545C1265.22 237.558 1267.66 240 1270.67 240Z" fill="#252525"/>
<path d="M1308.87 201.818C1308.87 204.831 1306.43 207.273 1303.41 207.273C1300.4 207.273 1297.96 204.831 1297.96 201.818C1297.96 198.806 1300.4 196.364 1303.41 196.364C1306.43 196.364 1308.87 198.806 1308.87 201.818Z" fill="#252525"/>
<path d="M1336.15 207.273C1339.17 207.273 1341.61 204.831 1341.61 201.818C1341.61 198.806 1339.17 196.364 1336.15 196.364C1333.14 196.364 1330.7 198.806 1330.7 201.818C1330.7 204.831 1333.14 207.273 1336.15 207.273Z" fill="#252525"/>
<path d="M1374.35 201.818C1374.35 204.831 1371.9 207.273 1368.89 207.273C1365.88 207.273 1363.43 204.831 1363.43 201.818C1363.43 198.806 1365.88 196.364 1368.89 196.364C1371.9 196.364 1374.35 198.806 1374.35 201.818Z" fill="#252525"/>
<path d="M1401.63 207.273C1404.64 207.273 1407.09 204.831 1407.09 201.818C1407.09 198.806 1404.64 196.364 1401.63 196.364C1398.62 196.364 1396.17 198.806 1396.17 201.818C1396.17 204.831 1398.62 207.273 1401.63 207.273Z" fill="#252525"/>
<path d="M1308.87 234.545C1308.87 237.558 1306.43 240 1303.41 240C1300.4 240 1297.96 237.558 1297.96 234.545C1297.96 231.533 1300.4 229.091 1303.41 229.091C1306.43 229.091 1308.87 231.533 1308.87 234.545Z" fill="#252525"/>
<path d="M1336.15 240C1339.17 240 1341.61 237.558 1341.61 234.545C1341.61 231.533 1339.17 229.091 1336.15 229.091C1333.14 229.091 1330.7 231.533 1330.7 234.545C1330.7 237.558 1333.14 240 1336.15 240Z" fill="#252525"/>
<path d="M1374.35 234.545C1374.35 237.558 1371.9 240 1368.89 240C1365.88 240 1363.43 237.558 1363.43 234.545C1363.43 231.533 1365.88 229.091 1368.89 229.091C1371.9 229.091 1374.35 231.533 1374.35 234.545Z" fill="#252525"/>
<path d="M1401.63 240C1404.64 240 1407.09 237.558 1407.09 234.545C1407.09 231.533 1404.64 229.091 1401.63 229.091C1398.62 229.091 1396.17 231.533 1396.17 234.545C1396.17 237.558 1398.62 240 1401.63 240Z" fill="#252525"/>
</svg>
